<svg width="50" height="24" viewBox="0 0 50 24" fill="none" xmlns="http://www.w3.org/2000/svg">
<path d="M45.7824 4.42301C45.5794 4.13297 45.2458 3.95896 44.8978 3.95896H38.1545V1.08762C38.1545 0.493057 37.6614 0 37.0669 0H12.6316C12.037 0 11.5439 0.493057 11.5439 1.08762V18.6636C11.5439 19.2582 12.037 19.7513 12.6316 19.7513H15.7059C16.2715 21.7235 18.0987 23.1882 20.2449 23.1882C22.3912 23.1882 24.2184 21.738 24.784 19.7513H36.8349C37.4004 21.7235 39.2276 23.1882 41.3739 23.1882C43.5201 23.1882 45.3473 21.738 45.9129 19.7513H48.1607C48.7552 19.7513 49.2483 19.2582 49.2483 18.6636V9.71612C49.2483 9.48409 49.1758 9.26656 49.0452 9.09254L45.7824 4.42301ZM47.0875 10.0352H42.215V6.14871H44.3467L47.0875 10.0352ZM13.7192 2.18975H35.9793V17.5905H24.8855C24.4649 15.4008 22.5507 13.7476 20.2449 13.7476C17.9392 13.7476 16.0105 15.4008 15.6044 17.5905H13.7192V2.18975ZM20.2449 21.0129C18.8383 21.0129 17.6927 19.8673 17.6927 18.4606C17.6927 17.054 18.8383 15.9083 20.2449 15.9083C21.6516 15.9083 22.7972 17.054 22.7972 18.4606C22.7972 19.8673 21.6516 21.0129 20.2449 21.0129ZM41.3884 21.0129C39.9817 21.0129 38.8361 19.8673 38.8361 18.4606C38.8361 17.054 39.9817 15.9083 41.3884 15.9083C42.795 15.9083 43.9407 17.054 43.9407 18.4606C43.9407 19.8673 42.795 21.0129 41.3884 21.0129ZM46.0289 17.5905C45.6084 15.4008 43.6941 13.7476 41.3884 13.7476C40.1412 13.7476 38.9956 14.2406 38.1545 15.0382V6.14871H40.0252V11.1228C40.0252 11.7173 40.5183 12.2104 41.1128 12.2104H47.102V17.5905H46.0289Z" fill="black"/>
<path d="M1.08762 2.1899H8.84602C9.44059 2.1899 9.93364 1.69684 9.93364 1.10227C9.93364 0.507705 9.44059 0.0146484 8.84602 0.0146484H1.08762C0.493057 0.0146484 0 0.507705 0 1.10227C0 1.69684 0.493057 2.1899 1.08762 2.1899Z" fill="black"/>
<path d="M8.84649 3.97363H2.8718C2.27724 3.97363 1.78418 4.46669 1.78418 5.06126C1.78418 5.65583 2.27724 6.14888 2.8718 6.14888H8.84649C9.44106 6.14888 9.93412 5.65583 9.93412 5.06126C9.93412 4.46669 9.45556 3.97363 8.84649 3.97363Z" fill="black"/>
<path d="M8.84536 7.93262H5.07493C4.48036 7.93262 3.9873 8.42567 3.9873 9.02024C3.9873 9.61481 4.48036 10.1079 5.07493 10.1079H8.84536C9.43993 10.1079 9.93299 9.61481 9.93299 9.02024C9.93299 8.42567 9.45443 7.93262 8.84536 7.93262Z" fill="black"/>
<path d="M8.8459 11.8916H7.54075C6.94618 11.8916 6.45312 12.3847 6.45312 12.9792C6.45312 13.5738 6.94618 14.0669 7.54075 14.0669H8.8459C9.44047 14.0669 9.93352 13.5738 9.93352 12.9792C9.93352 12.3847 9.45497 11.8916 8.8459 11.8916Z" fill="black"/>
</svg>
