<svg width="45" height="46" viewBox="0 0 45 46" fill="none" xmlns="http://www.w3.org/2000/svg">
<path d="M30.1644 12.8037H13.9911C13.9911 12.8037 13.9911 12.8037 13.9777 12.8037H11.5276C9.82726 12.8037 8.44824 14.1827 8.44824 15.8831V27.0625C8.44824 28.7628 9.82726 30.1418 11.5276 30.1418H13.9777H30.1644H32.6145C34.3149 30.1418 35.6939 28.7628 35.6939 27.0625V15.8831C35.6939 14.1827 34.3149 12.8037 32.6145 12.8037H30.1644ZM33.6856 18.949V23.9831C31.3694 24.0902 29.4816 25.8575 29.1871 28.1202H14.9551C14.6605 25.8575 12.7727 24.0902 10.4565 23.9831V18.949C12.7727 18.8419 14.6605 17.0746 14.9551 14.812H29.1871C29.4816 17.0746 31.3694 18.8419 33.6856 18.949ZM11.5276 14.812H12.92C12.6522 15.9634 11.6615 16.8337 10.4565 16.9408V15.8831C10.4565 15.294 10.9385 14.812 11.5276 14.812ZM10.4565 27.0491V25.9914C11.6615 26.0851 12.6522 26.9688 12.92 28.1202H11.5276C10.9385 28.1202 10.4565 27.6382 10.4565 27.0491ZM32.6279 28.1202H31.2355C31.5033 26.9688 32.494 26.0985 33.699 25.9914V27.0491C33.6856 27.6382 33.217 28.1202 32.6279 28.1202ZM33.6856 15.8697V16.9274C32.4806 16.8337 31.4899 15.95 31.2221 14.7986H32.6145C33.217 14.812 33.6856 15.294 33.6856 15.8697Z" fill="black"/>
<path d="M22.0773 25.844C24.4872 25.844 26.4553 23.8759 26.4553 21.4659C26.4553 19.056 24.4872 17.0879 22.0773 17.0879C19.6673 17.0879 17.6992 19.056 17.6992 21.4659C17.6992 23.8759 19.6539 25.844 22.0773 25.844ZM22.0773 19.0962C23.3893 19.0962 24.447 20.1539 24.447 21.4659C24.447 22.778 23.3893 23.8357 22.0773 23.8357C20.7652 23.8357 19.7075 22.778 19.7075 21.4659C19.7075 20.1539 20.7652 19.0962 22.0773 19.0962Z" fill="black"/>
<path d="M22.5195 45.0568C28.5309 45.0568 34.1809 42.7138 38.4384 38.4563C42.3881 34.5066 44.7177 29.2583 44.9988 23.6753C45.0256 23.1264 44.5972 22.6444 44.0482 22.6176C43.4993 22.5909 43.0173 23.0193 42.9905 23.5682C42.7362 28.6425 40.6074 33.4222 37.0059 37.0237C33.1366 40.893 27.982 43.0351 22.5061 43.0351C17.0302 43.0351 11.8756 40.9064 8.00633 37.0237C0.0133868 29.0307 0.0133868 16.0171 8.00633 8.02416C14.8211 1.2094 25.4248 0.0713752 33.4847 5.19918L31.222 7.9706L37.7155 7.31456L37.0594 0.821133L34.77 3.63272C25.8934 -2.15112 14.1249 -0.932764 6.58715 6.60497C-2.19572 15.3878 -2.19572 29.66 6.58715 38.4429C10.8581 42.7138 16.508 45.0568 22.5195 45.0568Z" fill="black"/>
</svg>
