<svg width="45" height="45" viewBox="0 0 45 45" fill="none" xmlns="http://www.w3.org/2000/svg">
<path d="M37.9688 4.21875V40.7812C37.9688 41.1542 37.8206 41.5119 37.5569 41.7756C37.2931 42.0393 36.9355 42.1875 36.5625 42.1875H8.4375C8.06454 42.1875 7.70685 42.0393 7.44313 41.7756C7.17941 41.5119 7.03125 41.1542 7.03125 40.7812V37.9688H9.84375V39.375H35.1562V5.625H9.84375V9.84375H7.03125V4.21875C7.03125 3.84579 7.17941 3.4881 7.44313 3.22438C7.70685 2.96066 8.06454 2.8125 8.4375 2.8125H36.5625C36.9355 2.8125 37.2931 2.96066 37.5569 3.22438C37.8206 3.4881 37.9688 3.84579 37.9688 4.21875ZM17.2828 28.5328L19.2797 30.5297L26.3109 23.4984C26.4427 23.3677 26.5474 23.2122 26.6188 23.0408C26.6901 22.8694 26.7269 22.6856 26.7269 22.5C26.7269 22.3144 26.6901 22.1306 26.6188 21.9592C26.5474 21.7878 26.4427 21.6323 26.3109 21.5016L19.2797 14.4703L17.2828 16.4672L21.9234 21.0938H7.03125V23.9062H21.9234L17.2828 28.5328Z" fill="black"/>
</svg>
