<svg width="25" height="25" viewBox="0 0 25 25" fill="none" xmlns="http://www.w3.org/2000/svg">
<path d="M19.794 17.7061C18.0751 17.7061 16.6768 19.1045 16.6768 20.8233C16.6768 22.5421 18.0752 23.9405 19.794 23.9405C21.5128 23.9405 22.9112 22.5421 22.9112 20.8233C22.9112 19.1045 21.5128 17.7061 19.794 17.7061ZM19.794 22.0701C19.1063 22.0701 18.5471 21.5109 18.5471 20.8233C18.5471 20.1356 19.1063 19.5764 19.794 19.5764C20.4816 19.5764 21.0408 20.1356 21.0408 20.8233C21.0408 21.5109 20.4816 22.0701 19.794 22.0701Z" fill="black"/>
<path d="M24.8013 5.65823C24.6242 5.43161 24.3527 5.29943 24.065 5.29943H5.77249L4.93084 1.77793C4.83015 1.35713 4.45388 1.06006 4.02121 1.06006H0.935162C0.418655 1.06001 0 1.47866 0 1.99517C0 2.51168 0.418655 2.93033 0.935162 2.93033H3.28308L6.32235 15.6473C6.42304 16.0685 6.79931 16.3652 7.23198 16.3652H21.7894C22.2193 16.3652 22.594 16.0722 22.6972 15.6551L24.9728 6.4593C25.0416 6.18005 24.9783 5.88484 24.8013 5.65823ZM21.0578 14.4949H7.97011L6.21947 7.16976H22.8701L21.0578 14.4949Z" fill="black"/>
<path d="M8.47853 17.7061C6.75968 17.7061 5.36133 19.1045 5.36133 20.8233C5.36133 22.5421 6.75972 23.9405 8.47853 23.9405C10.1973 23.9405 11.5957 22.5421 11.5957 20.8233C11.5957 19.1045 10.1973 17.7061 8.47853 17.7061ZM8.47853 22.0701C7.79088 22.0701 7.23165 21.5109 7.23165 20.8233C7.23165 20.1356 7.79088 19.5764 8.47853 19.5764C9.16618 19.5764 9.72542 20.1356 9.72542 20.8233C9.72542 21.5109 9.16618 22.0701 8.47853 22.0701Z" fill="black"/>
</svg>
