<svg width="36" height="36" viewBox="0 0 36 36" fill="none" xmlns="http://www.w3.org/2000/svg">
<g clip-path="url(#clip0_2005_225)">
<mask id="mask0_2005_225" style="mask-type:luminance" maskUnits="userSpaceOnUse" x="0" y="0" width="36" height="36">
<path d="M0 0H36V36H0V0Z" fill="white"/>
</mask>
<g mask="url(#mask0_2005_225)">
<path d="M26.0625 16.1925C23.9025 20.4375 20.43 23.91 16.1775 26.07L12.8775 22.7625C12.465 22.35 11.8725 22.23 11.355 22.395C9.675 22.95 7.8675 23.25 6 23.25C5.1675 23.25 4.5 23.9175 4.5 24.75V30C4.5 30.8325 5.1675 31.5 6 31.5C20.085 31.5 31.5 20.085 31.5 6C31.5 5.1675 30.825 4.5 30 4.5H24.75C23.9175 4.5 23.25 5.1675 23.25 6C23.25 7.8675 22.95 9.675 22.395 11.355C22.23 11.8725 22.35 12.465 22.7625 12.8775L26.0625 16.1925Z" fill="white"/>
</g>
</g>
<defs>
<clipPath id="clip0_2005_225">
<rect width="36" height="36" fill="white" transform="matrix(-1 0 0 1 36 0)"/>
</clipPath>
</defs>
</svg>
