<svg width="20" height="20" viewBox="0 0 20 20" fill="none" xmlns="http://www.w3.org/2000/svg">
<path d="M19.0156 18.2168L14.2555 13.2662C15.4794 11.8113 16.15 9.98069 16.15 8.07499C16.15 3.62251 12.5275 0 8.07499 0C3.62251 0 0 3.62251 0 8.07499C0 12.5275 3.62251 16.15 8.07499 16.15C9.74651 16.15 11.3394 15.6458 12.7013 14.6888L17.4975 19.677C17.6979 19.8852 17.9676 20 18.2565 20C18.53 20 18.7895 19.8957 18.9864 19.7061C19.4049 19.3034 19.4182 18.6357 19.0156 18.2168ZM8.07499 2.10652C11.3661 2.10652 14.0435 4.78391 14.0435 8.07499C14.0435 11.3661 11.3661 14.0435 8.07499 14.0435C4.78391 14.0435 2.10652 11.3661 2.10652 8.07499C2.10652 4.78391 4.78391 2.10652 8.07499 2.10652Z" fill="black"/>
</svg>
