<svg width="12" height="12" viewBox="0 0 12 12" fill="none" xmlns="http://www.w3.org/2000/svg">
<circle cx="6.13935" cy="5.9997" r="5.16279" fill="white"/>
<path fill-rule="evenodd" clip-rule="evenodd" d="M12 6C12 9.31371 9.31371 12 6 12C2.68629 12 0 9.31371 0 6C0 2.68629 2.68629 0 6 0C9.31371 0 12 2.68629 12 6ZM6.19493 9.33784H6.1964C8.1635 9.33703 9.76338 7.73677 9.76417 5.77008C9.76455 4.81679 9.39378 3.92041 8.72018 3.24606C8.04659 2.57167 7.15079 2.20012 6.19637 2.19971C4.22984 2.19971 2.62933 3.80013 2.62855 5.76727C2.62828 6.39608 2.79257 7.00984 3.10479 7.55092L2.59863 9.39971L4.48997 8.90357C5.01108 9.18781 5.59781 9.33763 6.19493 9.33784Z" fill="#25D366"/>
<path fill-rule="evenodd" clip-rule="evenodd" d="M4.68835 8.32236L4.58007 8.2581L3.45773 8.55251L3.7573 7.45823L3.68679 7.34603C3.38995 6.87391 3.23317 6.32822 3.2334 5.76789C3.23405 4.1329 4.56434 2.80273 6.20004 2.80273C6.9921 2.80301 7.73665 3.11185 8.29652 3.67237C8.85639 4.2329 9.16455 4.97793 9.16424 5.7703C9.16358 7.40541 7.83331 8.73571 6.19887 8.73571H6.19767C5.66555 8.7355 5.14365 8.59254 4.68835 8.32236ZM7.87397 6.53894C7.93614 6.56899 7.97813 6.58928 7.99606 6.61921C8.01834 6.65637 8.01834 6.83486 7.94409 7.04314C7.86977 7.25137 7.51363 7.44142 7.34234 7.467C7.18876 7.48997 6.9944 7.49955 6.78085 7.43168C6.65137 7.3906 6.48533 7.33575 6.27264 7.24389C5.4369 6.88303 4.87212 6.07302 4.76538 5.91993C4.7579 5.90921 4.75267 5.90171 4.74975 5.89781L4.74903 5.89685C4.70186 5.8339 4.38574 5.41213 4.38574 4.97562C4.38574 4.56498 4.58745 4.34975 4.6803 4.25068C4.68666 4.24389 4.69251 4.23765 4.69775 4.23192C4.77946 4.14267 4.87605 4.12036 4.93547 4.12036C4.9949 4.12036 5.05439 4.12091 5.10633 4.12352C5.11274 4.12384 5.11941 4.1238 5.1263 4.12376C5.17825 4.12346 5.24302 4.12308 5.30691 4.27655C5.33149 4.33561 5.36746 4.42318 5.40539 4.51553C5.4821 4.70228 5.56685 4.90862 5.58176 4.93847C5.60406 4.9831 5.61891 5.03514 5.5892 5.09466C5.58474 5.10359 5.58061 5.11201 5.57667 5.12006C5.55435 5.16562 5.53793 5.19914 5.50005 5.24337C5.48516 5.26076 5.46976 5.27951 5.45437 5.29825C5.4237 5.3356 5.39303 5.37295 5.36633 5.39955C5.3217 5.44401 5.27524 5.49224 5.32724 5.58149C5.37925 5.67074 5.55816 5.96265 5.82317 6.19904C6.10806 6.45315 6.35565 6.56055 6.48116 6.61498C6.50566 6.62561 6.52552 6.63423 6.54008 6.64151C6.62919 6.68615 6.6812 6.67868 6.7332 6.61921C6.78521 6.55971 6.95606 6.35889 7.01548 6.26965C7.07489 6.18044 7.13435 6.1953 7.21605 6.22504C7.29778 6.25482 7.73607 6.47045 7.82521 6.51507C7.84261 6.52379 7.85888 6.53165 7.87397 6.53894Z" fill="#25D366"/>
</svg>
