<svg width="167" height="19" viewBox="0 0 167 19" fill="none" xmlns="http://www.w3.org/2000/svg">
<path d="M5.09698 18.6527L0 0.328413H3.34348L7.26033 14.4029L11.4576 0.327061L14.5742 0.328413L18.7861 14.4772L22.7204 0.331792L26.0639 0.327061L20.9641 18.65L17.0883 18.6459L13.0177 4.96134L8.94147 18.6493L5.09698 18.6527ZM28.3699 0.337874H31.5526V18.6412H28.3699V0.337874ZM38.3579 15.7699H46.106V18.6412H35.2405V0.337874H38.3579V15.7699ZM55.8964 0.358822C58.5085 0.358822 60.6816 1.2454 62.394 2.99762C64.1281 4.74983 65.0055 6.92439 65.0055 9.49966C65.0055 12.054 64.1281 14.2285 62.3934 16.0024C60.6816 17.7546 58.5085 18.6412 55.8964 18.6412H48.4113V0.337874H55.8964V0.358822ZM55.8964 15.7909C57.6965 15.7909 59.1668 15.2003 60.2648 14.0177C61.406 12.8352 61.9765 11.3154 61.9765 9.52129C61.9765 7.6846 61.406 6.20674 60.2648 5.02418C59.1445 3.84163 57.6742 3.25102 55.8964 3.25102H51.5502V15.7909H55.8964ZM81.7981 13.4122C81.7981 14.9124 81.2498 16.1585 80.1302 17.1512C79.0106 18.1438 77.6934 18.6506 76.0693 18.6506H67.9252V0.337874H75.4764C77.0351 0.337874 78.3516 0.844684 79.4274 1.79546C80.5254 2.76651 81.0521 3.97137 81.0521 5.40733C81.0521 7.01224 80.3932 8.23737 79.1205 9.14557C80.7884 9.99026 81.7981 11.5114 81.7981 13.4122ZM71.0641 3.16791V7.98396H75.498C76.8813 7.98396 77.9348 6.92777 77.9348 5.57627C77.9348 4.22478 76.8813 3.16791 75.498 3.16791H71.0641ZM76.0908 15.8199C77.5396 15.8199 78.6814 14.7009 78.6814 13.2643C78.6814 11.8283 77.5396 10.7086 76.0908 10.7086H71.0641V15.8416H76.0908V15.8199ZM87.8783 15.778H96.3076V18.6506H84.7616V0.337874H96.1761V3.2098H87.8783V7.96301H95.4956V10.8147H87.8783V15.778ZM109.961 18.6506L105.922 11.9763H102.234V18.6506H99.1174V0.337874H106.734C108.446 0.337874 109.895 0.908205 111.059 2.06982C112.244 3.18953 112.859 4.5836 112.859 6.23107C112.859 8.55429 111.344 10.6876 109.083 11.5323L113.407 18.6506H109.961ZM102.234 3.16791V9.29356H106.712C108.38 9.29356 109.698 7.94206 109.698 6.23107C109.698 4.54103 108.359 3.16791 106.712 3.16791H102.234ZM126.622 18.6506L122.605 11.9729H118.917V18.6506H115.8V0.328413H123.417C125.129 0.328413 126.578 0.898744 127.741 2.06103C128.926 3.18142 129.541 4.57616 129.541 6.22431C129.541 8.54889 128.027 10.6836 125.766 11.5289L130.09 18.6506H126.622ZM118.917 3.1598V9.28883H123.395C125.063 9.28883 126.38 7.93598 126.38 6.22431C126.38 4.53359 125.041 3.1598 123.395 3.1598H118.917ZM132.373 0.330441H135.49V18.6506H132.373V0.330441ZM142.295 15.778H150.724V18.65H139.177V0.337874H150.592V3.21115H142.295V7.96369H149.911V10.8153H142.295V15.778ZM152.897 14.4819L155.597 12.9622C156.365 15.0313 157.924 16.0443 160.316 16.0443C162.687 16.0443 163.85 15.0732 163.85 13.6379C163.85 12.8777 163.521 12.329 162.907 11.9486C162.291 11.5479 161.15 11.1039 159.526 10.6403C157.704 10.1126 156.804 9.77469 155.531 8.97258C154.302 8.12789 153.687 6.92506 153.687 5.27759C153.687 3.65242 154.28 2.38539 155.487 1.43529C156.673 0.464239 158.121 0 159.812 0C162.863 0 165.211 1.52043 166.441 4.03219L163.806 5.4891C163.016 3.79973 161.677 2.93477 159.812 2.93477C157.989 2.93477 156.826 3.82135 156.826 5.21474C156.826 6.56556 157.748 7.19874 160.667 8.06437C161.392 8.29683 161.918 8.46577 162.248 8.59213C162.599 8.69755 163.06 8.88811 163.653 9.11989C164.268 9.35235 164.751 9.6267 165.036 9.85916C166.045 10.6187 167.121 11.8648 166.989 13.6163C166.989 15.2631 166.375 16.5937 165.124 17.5647C163.894 18.5358 162.27 19 160.251 19C156.563 18.9791 153.884 17.2897 152.897 14.4819Z" fill="#AE119E"/>
</svg>
