<svg width="85" height="51" viewBox="0 0 85 51" fill="none" xmlns="http://www.w3.org/2000/svg">
<path d="M8.74609 50.7767H75.3687L42.2341 17.6426L8.74609 50.7767Z" fill="#7BB51C"/>
<path d="M7.47246 49.1473L12.663 44.0837L10.9341 42.3106L7.67396 45.4923L1.93087 39.604L0 41.4877L7.47246 49.1473Z" fill="black"/>
<path d="M13.8028 42.9301L19.1212 37.74L17.6607 36.2439L14.2837 39.5382L12.662 37.8756L15.3681 35.2354L13.8398 33.67L11.1337 36.3088L9.74432 34.8848L13.0102 31.6978L11.5506 30.2021L6.24902 35.3749L13.8028 42.9301Z" fill="black"/>
<path d="M31.2105 18.3264C29.0656 16.1276 25.3447 16.3907 23.5528 18.1393C21.7605 19.8879 20.8458 23.3745 23.3768 25.9691C26.157 28.8185 29.4647 27.7836 31.2571 26.0359C33.8997 23.4577 32.9591 20.1187 31.2105 18.3264ZM29.634 24.5302C28.4476 25.6877 26.9972 25.3737 25.3399 23.6746C23.9472 22.2473 24.0309 20.8132 25.0437 19.8249C25.74 19.1454 27.1544 18.5375 28.8371 20.2625C30.757 22.2304 30.8204 23.3726 29.634 24.5302Z" fill="black"/>
<path d="M37.192 20.1521L39.1541 18.2371L36.2022 15.2116L34.4354 7.86035L32.1861 10.0552L33.3562 14.2257L29.4031 12.77L27.2822 14.8389L34.0218 17.003L37.192 20.1521Z" fill="black"/>
<path d="M26.731 30.3708C26.731 30.3708 21.9555 28.7414 21.7285 28.7809C21.655 28.7929 22.7543 25.8675 20.2843 24.5709C20.2843 24.5709 18.4516 23.5788 16.6174 25.2452L12.708 29.0978L20.2444 36.6876L22.2383 34.7423L18.1601 30.5631L24.7525 32.3012L26.731 30.3708ZM19.3345 29.3286C18.2265 30.4078 18.0769 30.4929 18.0769 30.4929C18.0769 30.4929 16.3399 28.7126 16.2783 28.6496C16.2168 28.5866 17.5205 27.4689 17.7259 27.2684C17.8129 27.1833 18.6247 26.6538 19.2965 27.342C19.2965 27.342 20.4421 28.2475 19.3345 29.3286Z" fill="black"/>
<path d="M36.5827 9.30908L34.8389 7.55085L42.4518 0L44.9434 2.51182L42.2007 7.90961L47.7923 5.38433L50.1897 7.80189L42.5768 15.3527L40.7392 13.5003L44.7577 9.51491L39.2604 12.0089L38.124 10.8629L40.6791 5.37086L36.5827 9.30908Z" fill="black"/>
<path d="M49.802 22.6363L44.5234 17.315L52.1368 9.76416L57.4302 15.1014L55.8923 16.6268L52.5759 13.2835L51.3356 14.5132L53.9513 17.1505L52.3499 18.7385L49.75 16.117L48.0861 17.7671L51.3712 21.0791L49.802 22.6363Z" fill="black"/>
<path d="M67.2081 24.959L69.1698 26.9375L63.4089 32.6507L66.6315 35.8988L64.779 37.7374L59.5947 32.5103L67.2081 24.959Z" fill="black"/>
<path d="M66.1484 39.1192L73.7618 31.5684L75.6768 33.4988L68.0634 41.0491L66.1484 39.1192Z" fill="black"/>
<path d="M71.536 44.5515L69.7451 42.7457L77.359 35.1953L79.9593 37.8153L77.7374 45.6552L82.777 40.6566L84.5208 42.4148L76.9079 49.9652L74.6341 47.6741L76.5919 39.4437L71.536 44.5515Z" fill="black"/>
<path d="M63.7679 21.4901L59.1439 16.8276L51.5146 24.3631L53.4763 26.3406L57.6357 22.2153L56.1386 29.0251L58.147 31.0502C58.147 31.0502 59.7301 26.179 59.7787 25.9761C59.7787 25.9761 61.4941 26.9211 63.3764 25.3028C63.3764 25.3028 65.1818 23.5436 63.7679 21.4901ZM60.9444 23.6985C60.9444 23.6985 59.9725 24.3511 59.116 23.4878L57.7781 22.0749C57.7781 22.0749 59.3944 20.4715 59.5984 20.2691C59.5984 20.2691 60.8439 21.5252 60.9997 21.682C61.1551 21.8388 62.1371 22.5775 60.9444 23.6985Z" fill="black"/>
</svg>
