<svg width="137" height="27" viewBox="0 0 137 27" fill="none" xmlns="http://www.w3.org/2000/svg">
<path d="M25.8247 11.7194C25.8247 11.7194 26.4653 4.4564 26.5304 3.74529C26.5494 3.33186 26.4849 2.91883 26.3409 2.53084C26.1968 2.14284 25.9761 1.78782 25.692 1.48693C25.4078 1.18604 25.0659 0.945442 24.6868 0.779476C24.3077 0.613509 23.899 0.525573 23.4851 0.520907H5.15391C4.3088 0.462331 3.47458 0.738696 2.8316 1.29026C2.18862 1.84182 1.78853 2.62427 1.71782 3.46845C1.6364 4.32069 0.116487 21.8811 0.0242069 22.8908C-0.0299439 23.3207 0.00699537 23.7573 0.132625 24.1721C0.258254 24.5868 0.469761 24.9705 0.753396 25.2982C1.03703 25.6259 1.38644 25.8902 1.77892 26.0739C2.1714 26.2577 2.59816 26.3568 3.03146 26.3649H21.2541C23.6751 26.3649 24.6142 25.0838 24.8205 23.1079C24.9454 21.9245 25.5425 14.7755 25.5425 14.7755H14.5231L14.0508 20.3015H11.2607L12.4604 6.58427H15.2505L14.8054 11.7194H25.8247Z" fill="#008C95"/>
<path d="M42.8262 2.73041C42.4354 3.85949 39.2273 13.8963 39.2273 13.8963L40.6549 0.510254H29.641L27.334 26.3651H35.6338C37.7182 26.3651 38.4294 25.1817 38.7768 24.2318C39.1947 23.1027 42.2508 14.6563 42.2508 14.6563L41.1272 26.3651H52.1466L54.4156 0.521111H45.7684C45.1037 0.516285 44.4558 0.729849 43.9243 1.12899C43.3927 1.52812 43.007 2.09075 42.8262 2.73041Z" fill="#008C95"/>
<path d="M98.6388 0.520996L97.6075 12.3058H94.8119L95.8433 0.520996H84.8293C84.8293 0.520996 83.7708 13.006 83.6568 14.2056C83.5266 15.6441 84.3408 17.6797 86.7781 17.6797H97.1406L96.9126 20.3016H83.1249L82.582 26.365H104.507C105.994 26.365 107.427 25.3933 107.623 23.3197C107.747 21.9898 109.642 0.520996 109.642 0.520996H98.6388Z" fill="#008C95"/>
<path d="M127.387 0.526855H112.427L110.169 26.3654H121.183L121.883 18.3696H132.588C134.482 18.3696 135.736 17.4033 135.942 15.1886C136.018 14.3255 136.892 4.53291 136.947 3.66982C137.082 1.75907 135.562 0.526855 133.69 0.526855H127.387ZM122.355 13.0119L122.898 6.60108H125.661L125.118 13.0119H122.355Z" fill="#008C95"/>
<path d="M67.4805 9.20078L67.7139 6.58436H81.5125L82.0553 0.520996H57.221L54.9629 26.3595H76.9473C78.3478 26.3595 79.8623 25.5344 80.0577 23.374C80.2043 21.7455 80.8828 14.0699 81.0077 12.6749C81.1705 10.813 79.9872 9.20078 77.6693 9.20078H67.4805ZM69.2609 20.9855H66.4491L66.9919 14.5802H69.7983L69.2609 20.9855Z" fill="#008C95"/>
</svg>
