<svg width="150" height="36" viewBox="0 0 150 36" fill="none" xmlns="http://www.w3.org/2000/svg">
<path fill-rule="evenodd" clip-rule="evenodd" d="M149.215 16.3138V17.0102C149.215 17.0102 148.419 17.3086 148.419 18.3033V34.0202C148.419 34.6171 147.922 35.015 147.424 35.015H144.341L137.576 24.2718C137.576 24.2718 137.676 25.167 137.676 26.2613V35.015H133.896V16.3138H136.383C137.676 16.3138 138.571 16.8112 139.168 17.8059L144.838 26.7586C144.838 26.7586 144.639 26.1618 144.639 24.7691V16.3138H149.215ZM76.7975 16.3138V34.0202C76.7975 34.6171 76.3001 35.015 75.8028 35.015H72.6196L65.8553 24.2718C65.8553 24.2718 65.9548 25.167 65.9548 26.2613V35.015H62.1748V16.3138H64.6617C65.9548 16.3138 66.8501 16.8112 67.4469 17.8059L73.117 26.7586C73.117 26.7586 72.918 26.1618 72.918 24.7691V16.3138C73.0175 16.3138 76.7975 16.3138 76.7975 16.3138ZM30.0446 16.3138H24.9714V23.476H20.5946V16.3138H14.7256V17.0102C14.7256 17.0102 15.5214 17.3086 15.5214 18.3033V35.015H20.5946V26.9576H24.9714V35.015H30.0446V16.3138ZM46.4579 16.3138H35.2173V33.3239C35.2173 34.3187 36.1125 35.015 37.1073 35.015H46.4579C47.0547 35.015 47.4526 34.5176 47.4526 34.0202V31.6329H40.9868C40.5889 31.6329 40.191 31.3344 40.191 30.8371V26.8581H45.9605V23.476H40.191V19.696H47.3531V17.3086C47.4526 16.8112 46.9552 16.3138 46.4579 16.3138ZM57.1016 16.3138H52.0284V34.0202C52.0284 34.6171 52.5258 35.015 53.0232 35.015H57.1016V16.3138ZM128.624 16.3138H117.383V33.3239C117.383 34.2192 118.278 35.015 119.273 35.015H128.624C129.22 35.015 129.618 34.5176 129.618 34.0202V31.6329H123.153C122.755 31.6329 122.357 31.3344 122.357 30.8371V26.8581H128.126V23.476H122.357V19.696H129.519V17.3086C129.618 16.8112 129.121 16.3138 128.624 16.3138ZM93.1113 16.3138H81.8707V33.3239C81.8707 34.2192 82.766 35.015 83.7607 35.015H93.1113C93.7081 35.015 94.106 34.5176 94.106 34.0202V31.6329H87.6402C87.2423 31.6329 86.8444 31.3344 86.8444 30.8371V26.8581H92.6139V23.476H86.8444V19.696H94.0066V17.3086C94.106 16.8112 93.6087 16.3138 93.1113 16.3138ZM114.399 16.3138H110.718C109.823 16.3138 109.127 16.5128 108.43 17.3086L103.258 23.1776V16.2144H98.1845V33.9208C98.1845 34.5176 98.6818 34.9155 99.1792 34.9155H103.258V26.4602L107.734 33.4234C108.43 34.4181 109.027 35.015 110.619 35.015H114.797L107.734 23.9733L114.399 16.3138Z" fill="#005127"/>
<path fill-rule="evenodd" clip-rule="evenodd" d="M4.97774 23.277C4.87827 23.3764 4.67932 23.3764 4.57985 23.1775C4.48037 23.078 4.48037 22.9785 4.57985 22.8791C4.67932 22.4812 7.26565 14.4238 7.26565 14.4238L0.103505 9.2511C-0.0954437 9.05216 0.00403053 8.65426 0.302453 8.65426C0.70035 8.65426 9.05619 8.65426 9.05619 8.65426C9.05619 8.65426 11.6425 0.596845 11.742 0.198948C11.8415 0.0994742 11.9409 0 12.1399 0C12.2394 0 12.3388 0.0994742 12.3388 0.198948C12.4383 0.596845 15.0246 8.65426 15.0246 8.65426C15.0246 8.65426 23.281 8.65426 23.7784 8.65426C24.0768 8.65426 24.1763 9.05216 23.9773 9.2511L19.7994 12.3348H14.8257L13.3336 7.56004L11.8415 12.3348H6.86775L10.9462 15.319L9.45408 20.0938L4.97774 23.277Z" fill="#D8232A"/>
</svg>
