<svg width="45" height="45" viewBox="0 0 45 45" fill="none" xmlns="http://www.w3.org/2000/svg">
<path d="M4.21875 36.5625L7.875 30.6562C9.98437 27.4219 13.5 25.3125 17.4375 25.3125H26.7188C26.7188 28.4063 24.1875 30.9375 21.0938 30.9375H18.2812" stroke="black" stroke-width="2" stroke-miterlimit="10" stroke-linecap="round" stroke-linejoin="round"/>
<path d="M21.0938 30.9375H32.3438L34.0313 28.6875C35.5781 26.5781 38.1094 25.3125 40.7812 25.3125L36.9844 32.0625C35.0156 35.7187 31.0781 37.9688 27 37.9688C20.3906 37.9688 13.9219 39.9375 8.4375 43.5938" stroke="black" stroke-width="2" stroke-miterlimit="10" stroke-linecap="round" stroke-linejoin="round"/>
<path d="M23.9062 30.9375C31.9219 27.2813 37.9688 21.2344 37.9688 6.04688C36.5625 6.46875 35.1562 6.75 33.6094 6.75C29.9531 6.75 26.4375 5.20313 23.9062 2.8125C21.2344 5.34375 17.8594 6.75 14.2031 6.75C12.6563 6.75 11.25 6.46875 9.84375 6.04688C9.84375 15.4688 12.2344 21.375 15.8906 25.4531" stroke="black" stroke-width="2" stroke-miterlimit="10" stroke-linecap="round" stroke-linejoin="round"/>
</svg>
