<svg width="132" height="41" viewBox="0 0 132 41" fill="none" xmlns="http://www.w3.org/2000/svg">
<path d="M8.61486 34.8359C3.03081 34.8359 0 30.8183 0 25.7734C0 20.6917 3.5635 16.5273 9.42307 16.5273C10.9844 16.5273 12.3253 16.7291 13.5009 17.3345V20.6183C11.9396 19.7011 10.7089 19.5176 9.55165 19.5176C5.58404 19.5176 4.11456 22.4345 4.11456 25.5165C4.11456 28.9471 5.96978 31.6622 9.20265 31.6622C10.6354 31.6622 11.7743 31.2586 13.1519 30.5248L14.1438 33.1848C12.0681 34.5057 10.3048 34.8359 8.61486 34.8359ZM71.3068 34.8359C67.1739 34.8359 65.0615 31.8089 65.0615 28.1949C65.0615 24.159 67.8535 21.4806 71.6007 21.4806C73.2538 21.4806 74.1172 21.8108 74.8152 22.2144V25.1129C73.8967 24.4525 73.162 24.214 72.1334 24.214C70.021 24.214 68.6617 25.7734 68.6617 28.0115C68.6617 30.0111 69.7087 31.974 72.0783 31.974C72.7395 31.974 73.6212 31.6805 74.558 31.2035L75.4397 33.6068C74.3927 34.3222 72.6109 34.8359 71.3068 34.8359ZM82.7871 24.6359V34.5791H79.1134V24.6359H75.5499V21.7374H86.8098L86.02 24.6359H82.7871ZM100.513 23.2417C100.513 27.7179 100.329 30.0478 99.5209 31.1302C99.1168 31.6622 98.4739 32.0291 97.8126 32.1208L98.8229 34.8359C99.6678 34.8176 100.954 34.4507 101.854 33.5701C103.029 32.4327 103.415 30.9834 103.58 29.4424C103.727 28.1399 103.838 26.6172 103.838 25.278V24.6359H106.721V34.5791H110.395V21.7374H100.531V23.2417H100.513ZM58.9447 21.4806C57.512 21.4806 56.4282 22.1777 55.4731 22.9115L55.069 21.7374H51.983V40.8348L55.6568 39.7157V34.3039C56.318 34.6525 57.1813 34.8359 58.1365 34.8359C61.9204 34.8359 64.2165 31.6071 64.2165 27.7913C64.2165 23.7187 61.9021 21.4806 58.9447 21.4806ZM57.2365 32.1758C56.5752 32.1758 56.0609 31.9557 55.6568 31.6622V25.5899C56.0976 24.9295 57.2365 24.1406 58.21 24.1406C59.6795 24.1406 60.5612 25.0762 60.5612 27.7179C60.5428 29.9194 59.7346 32.1758 57.2365 32.1758ZM92.0816 21.4806C90.355 21.4806 88.6651 21.7557 86.9201 22.8931L88.0222 25.1129C88.8855 24.6176 90.006 24.2507 91.2918 24.2507C92.5592 24.2507 93.6981 24.8194 93.6981 26.1586V26.3787L91.4755 26.4705C88.2242 26.5805 86.0384 27.9748 86.0384 30.6899C86.0384 33.2399 87.8752 34.8543 90.3182 34.8543C91.9714 34.8543 93.1103 34.2305 93.9368 33.4784L94.5063 34.5974H97.3718V26.2503C97.3901 22.8565 95.4982 21.4806 92.0816 21.4806ZM93.7164 31.387C93.3674 31.6622 92.6327 31.974 91.6591 31.974C90.4101 31.974 89.7121 31.3503 89.7121 30.378C89.7121 29.4057 90.4652 28.8737 92.0449 28.8003L93.7164 28.7453V31.387ZM117.504 25.9018H115.612V21.1687L111.938 22.141V34.5607H116.64C120.057 34.5607 123.235 33.6435 123.235 30.1028C123.235 27.1309 120.663 25.9018 117.504 25.9018ZM116.898 32.0474H115.63V28.4518H116.861C118.165 28.4518 119.579 28.6536 119.579 30.1762C119.579 31.6805 118.349 32.0474 116.898 32.0474ZM35.5248 27.5895V27.4795C36.7188 27.2226 37.7107 26.4338 37.7107 24.7644C37.7107 22.7647 36.0208 22.0309 34.3676 21.8108C33.8533 21.7374 32.7512 21.7374 32.1266 21.7374H26.8916V34.5791H31.3C31.796 34.5791 32.5124 34.5791 33.0818 34.5607C35.3962 34.4507 38.2617 33.6251 38.2617 30.6348C38.2434 28.8003 37.2514 27.8831 35.5248 27.5895ZM30.6388 24.1773H32.145C33.6512 24.1773 34.2023 24.6359 34.2023 25.4248C34.2023 26.4154 33.2838 26.7273 31.7592 26.7273H30.6388V24.1773ZM32.0531 32.1392H30.5469V28.9838H31.8695C33.6328 28.9838 34.5696 29.3874 34.5696 30.5431C34.588 31.7539 33.3389 32.1392 32.0531 32.1392ZM25.6976 28.0482C25.6976 24.0856 23.2546 21.4806 19.7462 21.4806C15.9072 21.4806 13.7397 24.5809 13.7397 28.1949C13.7397 31.5705 15.6316 34.8359 20.2054 34.8359C21.7484 34.8359 23.4934 34.4873 25.2751 33.3683L24.4669 31.0568C23.0158 31.7539 22.079 31.974 20.83 31.974C19.1217 31.974 17.4869 30.91 17.4134 29.1856H25.716V28.0482H25.6976ZM17.3216 26.6356C17.3216 25.4615 18.1665 24.1406 19.636 24.1406C21.1973 24.1406 21.877 25.4064 21.9504 26.6356H17.3216ZM50.9544 28.0482C50.9544 24.0856 48.5114 21.4806 45.003 21.4806C41.164 21.4806 38.9965 24.5809 38.9965 28.1949C38.9965 31.5705 40.8884 34.8359 45.4622 34.8359C47.0052 34.8359 48.7502 34.4873 50.5319 33.3683L49.7237 31.0568C48.2726 31.7539 47.3358 31.974 46.0867 31.974C44.3785 31.974 42.7437 30.91 42.6702 29.1856H50.9728V28.0482H50.9544ZM42.5783 26.6356C42.5783 25.4615 43.4233 24.1406 44.8928 24.1406C46.4541 24.1406 47.1337 25.4064 47.2072 26.6356H42.5783Z" fill="#002F6C"/>
<path d="M129.774 12.6565C129.572 12.8032 129.351 12.9133 129.131 12.9867C128.396 13.2068 127.514 13.005 126.706 12.6748C126.137 12.4363 125.531 12.1245 124.906 11.7392C125.237 10.932 125.549 10.0148 125.806 9.00576C126.21 7.42807 126.412 6.05218 126.449 4.84139C126.467 4.08924 126.431 3.41046 126.357 2.76838C126.247 1.90615 125.971 1.02558 125.42 0.511911C125.237 0.346804 125.035 0.218387 124.777 0.108315C125.916 -0.0201016 126.945 -0.0201016 127.845 0.0349342C128.8 0.108315 129.755 0.346804 130.306 0.897161C130.876 1.44752 131.115 2.40147 131.206 3.35543C131.298 4.25434 131.298 5.28168 131.206 6.41908C131.096 7.55649 130.876 8.82231 130.508 10.2166C130.288 11.0971 130.031 11.941 129.774 12.6565ZM115.905 11.9593C115.887 11.7025 115.887 11.464 115.942 11.2439C116.108 10.5101 116.732 9.8313 117.43 9.29929C117.926 8.91404 118.495 8.54713 119.138 8.19857C119.671 8.87735 120.314 9.61116 121.049 10.345C122.206 11.4824 123.308 12.3446 124.355 12.9867C124.998 13.3903 125.604 13.7021 126.192 13.9406C127 14.2709 127.882 14.4726 128.617 14.2525C128.837 14.1791 129.076 14.0507 129.278 13.9039C128.819 14.968 128.304 15.8485 127.808 16.6007C127.257 17.3712 126.578 18.0867 125.824 18.3068C125.071 18.527 124.116 18.2518 123.253 17.8665C122.426 17.4996 121.545 16.986 120.589 16.3255C119.653 15.6651 118.679 14.8396 117.65 13.8306C116.989 13.1885 116.401 12.5464 115.905 11.9593ZM123.437 0.310113C123.675 0.420185 123.877 0.548601 124.043 0.695363C124.612 1.20903 124.869 2.0896 124.98 2.95183C125.053 3.55722 125.09 4.236 125.071 4.96981C124.208 5.07988 123.271 5.28168 122.261 5.55686C120.7 5.99714 119.396 6.51081 118.33 7.07951C117.669 7.42807 117.081 7.81332 116.585 8.19857C115.905 8.73059 115.263 9.39102 115.097 10.1432C115.042 10.3817 115.042 10.6385 115.061 10.8953C114.381 9.95972 113.867 9.07915 113.462 8.27195C113.058 7.40973 112.783 6.45577 112.985 5.70362C113.187 4.93312 113.885 4.25434 114.656 3.68564C115.391 3.15363 116.273 2.63996 117.32 2.16298C118.367 1.68601 119.561 1.24572 120.957 0.860471C121.82 0.640328 122.665 0.456875 123.437 0.310113Z" fill="#002F6C"/>
</svg>
