<svg width="211" height="36" viewBox="0 0 211 36" fill="none" xmlns="http://www.w3.org/2000/svg">
<path d="M35.4839 28.639L28.3776 35.8107H2.1462L0 33.6448V7.17177L7.10632 0H33.3377L35.4839 2.16597V28.639Z" fill="#ED1C24"/>
<path d="M33.3377 0L25.3729 8.03816V19.7825L18.8389 10.7336H5.0555V13.5734H9.10945V24.4514L0 33.6448V35.8107H2.1462L12.1618 25.7029V13.5734H16.2158V25.029H19.2205V15.9801L25.7545 25.029H28.3299V9.33774L35.4839 2.16597V0H33.3377Z" fill="white"/>
<path d="M46.8355 14.2473H42.5908V10.7817H55.0388V14.2473H50.7941V25.0771H46.8832L46.8355 14.2473Z" fill="black"/>
<path d="M57.0887 10.7334H68.4874V14.1027H60.9519V16.2687H67.772V19.3973H60.9519V21.6595H68.5828V25.0288H57.041V10.7334H57.0887Z" fill="black"/>
<path d="M75.1167 17.7608L70.4427 10.7334H74.9736L77.5014 14.7765L80.0291 10.7334H84.4646L79.7906 17.7126L84.6554 25.0288H80.1245L77.406 20.6969L74.6874 25.0288H70.252L75.1167 17.7608Z" fill="black"/>
<path d="M86.4678 10.7334H90.3786V16.0761H95.4341V10.7334H99.345V25.0769H95.4341V19.6379H90.3786V25.0769H86.4678V10.7334Z" fill="black"/>
<path d="M101.777 17.9054C101.777 13.8141 105.068 10.4448 109.456 10.4448C113.844 10.4448 117.087 13.7178 117.087 17.9054C117.087 21.9967 113.796 25.366 109.408 25.366C105.02 25.366 101.777 22.0448 101.777 17.9054ZM113.033 17.9054C113.033 15.8357 111.555 14.0548 109.361 14.0548C107.214 14.0548 105.784 15.8357 105.784 17.9054C105.784 19.9751 107.262 21.756 109.408 21.756C111.602 21.756 113.033 20.0232 113.033 17.9054Z" fill="black"/>
<path d="M119.424 10.7334H123.382V16.0761H128.438V10.7334H132.396V25.0769H128.438V19.6379H123.382V25.0769H119.424V10.7334Z" fill="black"/>
<path d="M135.401 10.7334H139.312V18.8197L144.797 10.7334H148.469V25.0769H144.559V16.9906L139.074 25.0288H135.401V10.7334Z" fill="black"/>
<path d="M151.521 10.7334H155.432V16.5575L160.297 10.7334H164.971L159.582 16.8944L165.114 25.0769H160.392L156.911 19.7342L155.48 21.3707V25.0769H151.569V10.7334H151.521Z" fill="black"/>
<path d="M165.258 17.9054C165.258 13.8141 168.549 10.4448 172.936 10.4448C177.324 10.4448 180.567 13.7178 180.567 17.9054C180.567 21.9967 177.277 25.366 172.889 25.366C168.501 25.366 165.258 22.0448 165.258 17.9054ZM176.513 17.9054C176.513 15.8357 175.035 14.0548 172.889 14.0548C170.743 14.0548 169.312 15.8357 169.312 17.9054C169.312 19.9751 170.79 21.756 172.936 21.756C175.083 21.756 176.513 20.0232 176.513 17.9054Z" fill="black"/>
<path d="M198.118 10.7334H202.029V15.2579H204.175C207.561 15.2579 210.089 16.8944 210.089 20.1193C210.089 23.1998 207.848 25.0769 204.414 25.0769H198.118V10.7334ZM204.08 21.7558C205.368 21.7558 206.131 21.1782 206.131 20.023C206.131 19.0122 205.368 18.3865 204.08 18.3865H202.029V21.7558H204.08Z" fill="black"/>
<path d="M184.002 10.7334V17.0388C184.002 18.5309 183.858 20.6969 182.905 21.4189C182.428 21.7558 181.712 22.0446 181.235 22.0446V25.4139H181.617C183 25.4139 184.526 24.8844 185.099 24.4993C187.483 22.9591 187.769 20.0711 187.769 16.8463V14.2471H191.156V25.0769H195.066V10.7334H184.002Z" fill="black"/>
</svg>
